#!OML:ASF E:\emotionWalksFemale\Project 1\Capture day 1\Session 1\Female1.ASF
:FULLY-SPECIFIED
:DEGREES
2972
root 10.5132 15.7755 1.62147 -354.727 -16.7218 -3.99021
lowerback 15.5169 -3.05925 -4.77647
upperback -2.38126 -5.04058 -0.189966
thorax -10.9459 -2.09322 3.7159
lowerneck -7.41246 6.51157 1.73335
upperneck 10.8661 8.11963 3.69617
head 4.38375 4.27004 1.32994
rclavicle -1.98785e-016 3.81667e-014
rhumerus -42.1962 23.8638 -101.581
rradius 51.2639
rwrist -6.86465
rhand 12.658 -60.2134
rfingers 7.12502
rthumb -142.357 1533.89
lclavicle -1.98785e-016 3.81667e-014
lhumerus -44.1939 -1.11167 81.5793
lradius 30.2314
lwrist -18.0197
lhand -0.580834 -33.6167
lfingers 7.12502
lthumb 25.0339 -5.23722
rfemur -32.309 14.6757 24.7782
rtibia 24.2576
rfoot -0.661937 -18.7745
rtoes -17.8922
lfemur -3.10099 -2.73629 -25.799
ltibia 28.595
lfoot -14.822 5.94289
ltoes -4.294
2973
root 10.5002 15.7668 1.67138 -354.853 -16.4889 -3.85473
lowerback 15.2337 -3.06903 -4.77611
upperback -2.22745 -5.0322 -0.207295
thorax -10.6104 -2.10745 3.66602
lowerneck -7.46847 6.4553 1.54855
upperneck 10.7714 8.05243 3.82572
head 4.35126 4.23685 1.39325
rclavicle 3.13086e-014 3.18055e-015
rhumerus -41.9989 24.0863 -101.638
rradius 51.2254
rwrist -6.65719
rhand 12.6098 -60.1999
rfingers 7.12502
rthumb -142.403 1533.89
lclavicle 3.13086e-014 3.18055e-015
lhumerus -43.8679 -1.5288 81.5634
lradius 30.475
lwrist -17.717
lhand -0.935213 -33.2455
lfingers 7.12502
lthumb 24.6943 -4.81904
rfemur -32.1762 14.8879 24.65
rtibia 24.0102
rfoot -0.648313 -19.088
rtoes -17.7921
lfemur -2.82691 -2.65623 -25.8853
ltibia 28.5322
lfoot -14.9197 5.53739
ltoes -1.15768
2974
root 10.4858 15.7518 1.72034 -354.97 -16.2099 -3.72909
lowerback 15.7992 -3.09894 -4.97806
upperback -2.63451 -5.14537 -0.043373
thorax -11.3566 -2.10109 4.04715
lowerneck -7.08392 6.43156 1.45923
upperneck 11.0741 8.04409 3.73466
head 4.38023 4.22399 1.37229
rclavicle -8.7664e-014 0
rhumerus -42.8503 24.5531 -101.993
rradius 51.2908
rwrist -6.5854
rhand 12.8445 -60.3475
rfingers 7.12502
rthumb -142.181 1533.8
lclavicle -8.7664e-014 0
lhumerus -44.3396 -1.52891 81.6365
lradius 30.5691
lwrist -17.6099
lhand -1.52219 -33.1462
lfingers 7.12502
lthumb 24.1316 -4.64391
rfemur -32.0406 14.9343 24.5869
rtibia 23.7985
rfoot -0.6876 -19.2812
rtoes -17.3508
lfemur -2.51079 -2.62919 -25.9643
ltibia 28.4385
lfoot -15.0451 5.25405
ltoes -1.56374
2975
root 10.4708 15.738 1.77297 -355.083 -15.8409 -3.50058
lowerback 15.547 -3.16123 -5.08362
upperback -2.53531 -5.23145 -0.0590878
thorax -11.0808 -2.15062 4.08375
lowerneck -7.02555 6.38227 1.45204
upperneck 10.608 8.01389 3.52957
head 4.70158 4.18213 1.44211
rclavicle 1.31198e-014 -1.19271e-014
rhumerus -42.7577 24.9381 -102.13
rradius 51.269
rwrist -6.5898
rhand 13.2637 -60.6669
rfingers 7.12502
rthumb -141.785 1533.59
lclavicle 1.31198e-014 -1.19271e-014
lhumerus -43.8572 -1.61188 81.5127
lradius 30.4791
lwrist -17.5186
lhand -1.76916 -33.2978
lfingers 7.12502
lthumb 23.8948 -4.7643
rfemur -31.9247 15.004 24.3631
rtibia 23.5945
rfoot -0.610393 -19.5305
rtoes -17.3453
lfemur -2.19236 -2.68174 -26.1499
ltibia 28.3334
lfoot -15.1096 4.98315
ltoes -2.60953
2976
root 10.456 15.7236 1.82982 -355.226 -15.4828 -3.26784
lowerback 15.4164 -3.21811 -5.18271
upperback -2.49259 -5.32102 -0.0983928
thorax -10.9428 -2.19573 4.10386
lowerneck -7.04856 6.3716 1.46454
upperneck 10.7234 7.99687 3.51147
head 4.75052 4.17403 1.43838
rclavicle -3.51849e-014 -7.95139e-016
rhumerus -42.8992 25.1742 -102.361
rradius 51.3015
rwrist -6.38938
rhand 13.3038 -60.8071
rfingers 7.12502
rthumb -141.747 1533.46
lclavicle -3.51849e-014 -7.95139e-016
lhumerus -43.6188 -1.75209 81.3785
lradius 30.6766
lwrist -17.3814
lhand -1.77224 -33.52
lfingers 7.12502
lthumb 23.8918 -4.98614
rfemur -31.7709 15.1153 24.133
rtibia 23.4294
rfoot -0.53343 -19.8684
rtoes -16.7038
lfemur -1.78881 -2.75012 -26.3581
ltibia 28.212
lfoot -15.1067 4.73244
ltoes -2.0722
2977
root 10.4422 15.7143 1.88684 -355.367 -15.2151 -3.13669
lowerback 15.4045 -3.2528 -5.23657
upperback -2.46094 -5.37585 -0.102009
thorax -10.8904 -2.22144 4.13975
lowerneck -6.98408 6.32681 1.50503
upperneck 11.0849 7.92214 3.54135
head 4.37848 4.15429 1.29668
rclavicle 9.59136e-014 1.19271e-014
rhumerus -43.1381 25.5077 -102.642
rradius 51.399
rwrist -6.15121
rhand 13.1253 -61.0439
rfingers 7.12502
rthumb -141.916 1533.18
lclavicle 9.59136e-014 1.19271e-014
lhumerus -43.3031 -1.80272 81.1927
lradius 30.895
lwrist -17.1514
lhand -1.95981 -33.5976
lfingers 7.12502
lthumb 23.7119 -5.0403
rfemur -31.5347 15.1545 24.089
rtibia 23.3077
rfoot -0.508344 -20.0716
rtoes -15.4497
lfemur -1.3786 -2.77492 -26.4681
ltibia 28.0688
lfoot -15.0658 4.45539
ltoes -0.9371
2978
root 10.4299 15.7061 1.94434 -355.458 -14.9883 -2.94755
lowerback 15.4045 -3.29496 -5.3607
upperback -2.48744 -5.45749 -0.101658
thorax -10.9011 -2.25133 4.22906
lowerneck -6.88063 6.24259 1.39512
upperneck 10.5948 7.83897 3.50433
head 4.66783 4.09185 1.4255
rclavicle -1.90833e-014 -9.54166e-015
rhumerus -43.359 26.048 -102.934
rradius 51.4791
rwrist -6.17964
rhand 12.9976 -61.0656
rfingers 7.12502
rthumb -142.036 1533.13
lclavicle -1.90833e-014 -9.54166e-015
lhumerus -43.0679 -1.48446 80.8341
lradius 31.0905
lwrist -17.2195
lhand -2.35596 -33.7416
lfingers 7.12502
lthumb 23.3319 -5.13562
rfemur -31.3526 15.1675 23.9839
rtibia 23.1912
rfoot -0.137084 -20.029
rtoes -16.4923
lfemur -1.07779 -2.79131 -26.648
ltibia 27.9753
lfoot -15.0756 4.22811
ltoes -1.25374
2979
root 10.4151 15.6942 2.0033 -355.549 -14.7518 -2.6889
lowerback 15.358 -3.32929 -5.58379
upperback -2.52452 -5.54499 -0.0972886
thorax -10.8863 -2.27874 4.37568
lowerneck -6.93343 6.18494 1.32773
upperneck 10.6616 7.76456 3.52061
head 4.70039 4.05412 1.44295
rclavicle -3.88624e-014 -7.95139e-016
rhumerus -43.5037 26.7001 -103.212
rradius 51.4841
rwrist -6.49924
rhand 12.6029 -60.8802
rfingers 7.12502
rthumb -142.409 1533.21
lclavicle -3.88624e-014 -7.95139e-016
lhumerus -43.0047 -1.01433 80.4617
lradius 31.4431
lwrist -17.4752
lhand -2.77368 -34.02
lfingers 7.12502
lthumb 22.9312 -5.36368
rfemur -31.2001 15.197 23.7955
rtibia 23.0689
rfoot 0.202309 -19.9228
rtoes -17.9295
lfemur -0.814148 -2.76039 -26.8818
ltibia 27.9818
lfoot -15.1722 4.0002
ltoes -2.36894
2980
root 10.3984 15.6828 2.0546 -355.504 -14.4257 -2.54376
lowerback 15.2876 -3.37832 -5.70342
upperback -2.54167 -5.62813 -0.0824865
thorax -10.8432 -2.31215 4.47173
lowerneck -7.07329 6.14591 1.37655
upperneck 11.0494 7.68759 3.58203
head 4.37815 4.03668 1.31812
rclavicle 9.83984e-015 2.78299e-014
rhumerus -43.5436 27.2696 -103.514
rradius 51.3715
rwrist -6.73706
rhand 12.204 -61.2006
rfingers 7.12502
rthumb -142.786 1532.79
lclavicle 9.83984e-015 2.78299e-014
lhumerus -42.6805 -1.08935 80.3362
lradius 31.6757
lwrist -17.0744
lhand -3.12366 -33.9818
lfingers 7.12502
lthumb 22.5953 -5.28417
rfemur -31.1871 15.1386 23.7204
rtibia 23.0117
rfoot 0.254651 -19.9396
rtoes -17.6533
lfemur -0.703026 -2.67029 -26.9219
ltibia 27.9755
lfoot -15.1726 3.58053
ltoes -2.99594
